<mxfile host="65bd71144e">
    <diagram id="Sv7ANccjvepn01_EJuH9" name="Page-1">
        <mxGraphModel dx="2546" dy="968" grid="0" gridSize="10" guides="1" tooltips="1" connect="1" arrows="1" fold="1" page="1" pageScale="1" pageWidth="1169" pageHeight="827" background="#ffffff" math="0" shadow="0">
            <root>
                <mxCell id="0"/>
                <mxCell id="1" parent="0"/>
                <mxCell id="42" value="" style="rounded=0;whiteSpace=wrap;html=1;fillColor=none;strokeColor=#000000;" parent="1" vertex="1">
                    <mxGeometry x="-62" y="39.12" width="800" height="1331.77" as="geometry"/>
                </mxCell>
                <mxCell id="2" value="" style="shape=umlLifeline;participant=umlActor;perimeter=lifelinePerimeter;whiteSpace=wrap;html=1;container=0;collapsible=0;recursiveResize=0;verticalAlign=top;spacingTop=36;outlineConnect=0;strokeWidth=2;strokeColor=#82b366;fillColor=#d5e8d4;" parent="1" vertex="1">
                    <mxGeometry x="150" y="120" width="20" height="1160" as="geometry"/>
                </mxCell>
                <mxCell id="3" value="&lt;b&gt;Software&lt;/b&gt;&lt;br&gt;( Client Side )&amp;nbsp;" style="shape=umlLifeline;perimeter=lifelinePerimeter;whiteSpace=wrap;html=1;container=1;collapsible=0;recursiveResize=0;outlineConnect=0;strokeColor=#b85450;strokeWidth=2;fillColor=#f8cecc;fontColor=#000000;" parent="1" vertex="1">
                    <mxGeometry x="270" y="120" width="100" height="1160" as="geometry"/>
                </mxCell>
                <mxCell id="9" value="" style="html=1;points=[];perimeter=orthogonalPerimeter;strokeColor=#ae4132;strokeWidth=2;fillColor=#fad9d5;" parent="3" vertex="1">
                    <mxGeometry x="45" y="80" width="10" height="80" as="geometry"/>
                </mxCell>
                <mxCell id="28" value="&lt;b&gt;Display&lt;/b&gt;&lt;br&gt;playlist view" style="html=1;verticalAlign=bottom;endArrow=block;fontColor=#000000;labelBackgroundColor=#FFFFFF;strokeWidth=2;fillColor=#f8cecc;strokeColor=#b85450;" parent="3" edge="1">
                    <mxGeometry x="0.1667" width="80" relative="1" as="geometry">
                        <mxPoint x="55.00000000000023" y="120" as="sourcePoint"/>
                        <mxPoint x="55" y="160" as="targetPoint"/>
                        <Array as="points">
                            <mxPoint x="95" y="120"/>
                            <mxPoint x="95" y="160"/>
                        </Array>
                        <mxPoint as="offset"/>
                    </mxGeometry>
                </mxCell>
                <mxCell id="37" value="&lt;b&gt;Check &lt;br&gt;&lt;/b&gt;playlist name" style="html=1;verticalAlign=bottom;endArrow=block;fontColor=#000000;labelBackgroundColor=#FFFFFF;strokeWidth=2;fillColor=#f8cecc;strokeColor=#b85450;" parent="3" edge="1">
                    <mxGeometry x="0.1667" width="80" relative="1" as="geometry">
                        <mxPoint x="55" y="480" as="sourcePoint"/>
                        <mxPoint x="55" y="520" as="targetPoint"/>
                        <Array as="points">
                            <mxPoint x="95" y="480"/>
                            <mxPoint x="95" y="520"/>
                        </Array>
                        <mxPoint as="offset"/>
                    </mxGeometry>
                </mxCell>
                <mxCell id="38" value="&lt;b&gt;Check&lt;/b&gt;&lt;br&gt;if playlist exist" style="html=1;verticalAlign=bottom;endArrow=block;fontColor=#000000;labelBackgroundColor=#FFFFFF;strokeWidth=2;fillColor=#f8cecc;strokeColor=#b85450;" parent="3" edge="1">
                    <mxGeometry x="0.1667" width="80" relative="1" as="geometry">
                        <mxPoint x="55" y="720" as="sourcePoint"/>
                        <mxPoint x="55" y="760" as="targetPoint"/>
                        <Array as="points">
                            <mxPoint x="95" y="720"/>
                            <mxPoint x="95" y="760"/>
                        </Array>
                        <mxPoint as="offset"/>
                    </mxGeometry>
                </mxCell>
                <mxCell id="50" value="" style="html=1;points=[];perimeter=orthogonalPerimeter;strokeColor=#ae4132;strokeWidth=2;fillColor=#fad9d5;" parent="3" vertex="1">
                    <mxGeometry x="45" y="320" width="10" height="30" as="geometry"/>
                </mxCell>
                <mxCell id="4" value="&lt;b&gt;API&lt;/b&gt;&lt;br&gt;( Server Side )" style="shape=umlLifeline;perimeter=lifelinePerimeter;whiteSpace=wrap;html=1;container=1;collapsible=0;recursiveResize=0;outlineConnect=0;strokeColor=#9673a6;strokeWidth=2;fillColor=#e1d5e7;fontColor=#000000;" parent="1" vertex="1">
                    <mxGeometry x="430" y="120" width="100" height="1170" as="geometry"/>
                </mxCell>
                <mxCell id="5" value="&lt;b&gt;Python process&lt;/b&gt;&lt;br&gt;( pytube )" style="shape=umlLifeline;perimeter=lifelinePerimeter;whiteSpace=wrap;html=1;container=1;collapsible=0;recursiveResize=0;outlineConnect=0;strokeColor=#10739e;strokeWidth=2;fillColor=#b1ddf0;fontColor=#000000;" parent="1" vertex="1">
                    <mxGeometry x="590" y="120" width="100" height="1170" as="geometry"/>
                </mxCell>
                <mxCell id="16" value="&lt;b&gt;Click on &lt;/b&gt;playlist button (nav)" style="html=1;verticalAlign=bottom;endArrow=block;fontColor=#000000;labelBackgroundColor=none;strokeWidth=2;fillColor=#d5e8d4;gradientColor=#97d077;strokeColor=#82b366;" parent="1" target="3" edge="1">
                    <mxGeometry width="80" relative="1" as="geometry">
                        <mxPoint x="165" y="200" as="sourcePoint"/>
                        <mxPoint x="245" y="200" as="targetPoint"/>
                    </mxGeometry>
                </mxCell>
                <mxCell id="24" value="Create Playlist - Sequences Diagram" style="text;align=center;fontStyle=1;verticalAlign=middle;spacingLeft=3;spacingRight=3;strokeColor=none;rotatable=0;points=[[0,0.5],[1,0.5]];portConstraint=eastwest;fontColor=#000000;fontSize=25;" parent="1" vertex="1">
                    <mxGeometry x="360" y="50" width="80" height="26" as="geometry"/>
                </mxCell>
                <mxCell id="25" value="&lt;b&gt;&lt;font style=&quot;font-size: 20px&quot;&gt;Alt&lt;/font&gt;&lt;/b&gt;" style="shape=umlFrame;tabWidth=110;tabHeight=30;tabPosition=left;html=1;boundedLbl=1;labelInHeader=1;width=140;height=30;fillColor=none;strokeColor=#4D4D4D;strokeWidth=2;fontColor=#000000;container=0;" parent="1" vertex="1">
                    <mxGeometry x="-20" y="919" width="540" height="320" as="geometry"/>
                </mxCell>
                <mxCell id="6" value="" style="html=1;points=[];perimeter=orthogonalPerimeter;strokeColor=#82b366;strokeWidth=2;fillColor=#d5e8d4;" parent="1" vertex="1">
                    <mxGeometry x="155" y="200" width="10" height="40" as="geometry"/>
                </mxCell>
                <mxCell id="29" value="" style="html=1;points=[];perimeter=orthogonalPerimeter;strokeColor=#ae4132;strokeWidth=2;fillColor=#fad9d5;" parent="1" vertex="1">
                    <mxGeometry x="315" y="320" width="10" height="80" as="geometry"/>
                </mxCell>
                <mxCell id="30" value="&lt;b&gt;Display&lt;/b&gt;&lt;br&gt;create playlist&lt;br&gt;modal" style="html=1;verticalAlign=bottom;endArrow=block;fontColor=#000000;labelBackgroundColor=#FFFFFF;strokeWidth=2;fillColor=#f8cecc;strokeColor=#b85450;" parent="1" edge="1">
                    <mxGeometry x="0.1667" y="15" width="80" relative="1" as="geometry">
                        <mxPoint x="325.0000000000002" y="360" as="sourcePoint"/>
                        <mxPoint x="325" y="400" as="targetPoint"/>
                        <Array as="points">
                            <mxPoint x="365" y="360"/>
                            <mxPoint x="365" y="400"/>
                        </Array>
                        <mxPoint as="offset"/>
                    </mxGeometry>
                </mxCell>
                <mxCell id="31" value="&lt;b&gt;Click on &lt;br&gt;&lt;/b&gt;create playlist button" style="html=1;verticalAlign=bottom;endArrow=block;fontColor=#000000;labelBackgroundColor=none;strokeWidth=2;fillColor=#d5e8d4;gradientColor=#97d077;strokeColor=#82b366;" parent="1" edge="1">
                    <mxGeometry width="80" relative="1" as="geometry">
                        <mxPoint x="165" y="320" as="sourcePoint"/>
                        <mxPoint x="319" y="320" as="targetPoint"/>
                    </mxGeometry>
                </mxCell>
                <mxCell id="32" value="" style="html=1;points=[];perimeter=orthogonalPerimeter;strokeColor=#82b366;strokeWidth=2;fillColor=#d5e8d4;" parent="1" vertex="1">
                    <mxGeometry x="155" y="320" width="10" height="40" as="geometry"/>
                </mxCell>
                <mxCell id="33" value="" style="html=1;points=[];perimeter=orthogonalPerimeter;strokeColor=#ae4132;strokeWidth=2;fillColor=#fad9d5;" parent="1" vertex="1">
                    <mxGeometry x="316" y="520" width="10" height="682" as="geometry"/>
                </mxCell>
                <mxCell id="34" value="&lt;b&gt;Enter &lt;/b&gt;a playlist name" style="html=1;verticalAlign=bottom;endArrow=block;fontColor=#000000;labelBackgroundColor=none;strokeWidth=2;fillColor=#d5e8d4;gradientColor=#97d077;strokeColor=#82b366;" parent="1" edge="1">
                    <mxGeometry width="80" relative="1" as="geometry">
                        <mxPoint x="166" y="440" as="sourcePoint"/>
                        <mxPoint x="320" y="440" as="targetPoint"/>
                    </mxGeometry>
                </mxCell>
                <mxCell id="35" value="" style="html=1;points=[];perimeter=orthogonalPerimeter;strokeColor=#82b366;strokeWidth=2;fillColor=#d5e8d4;" parent="1" vertex="1">
                    <mxGeometry x="156" y="440" width="10" height="40" as="geometry"/>
                </mxCell>
                <mxCell id="43" value="&lt;b&gt;&lt;font style=&quot;font-size: 20px&quot;&gt;Alt&lt;/font&gt;&lt;/b&gt;" style="shape=umlFrame;tabWidth=110;tabHeight=30;tabPosition=left;html=1;boundedLbl=1;labelInHeader=1;width=140;height=30;fillColor=none;strokeColor=#4D4D4D;strokeWidth=2;fontColor=#000000;" parent="1" vertex="1">
                    <mxGeometry x="20" y="679" width="500" height="120" as="geometry"/>
                </mxCell>
                <mxCell id="44" value="[ Incorrect playlist &#10;name]" style="text;fontColor=#000000;fontSize=15;" parent="43" vertex="1">
                    <mxGeometry width="100" height="20" relative="1" as="geometry">
                        <mxPoint x="10" y="50" as="offset"/>
                    </mxGeometry>
                </mxCell>
                <mxCell id="49" value="&lt;b&gt;Check &lt;br&gt;&lt;/b&gt;playlist name" style="html=1;verticalAlign=bottom;endArrow=block;fontColor=#000000;labelBackgroundColor=#FFFFFF;strokeWidth=2;fillColor=#f8cecc;strokeColor=#b85450;" parent="43" edge="1">
                    <mxGeometry x="0.1667" width="80" relative="1" as="geometry">
                        <mxPoint x="306" y="40" as="sourcePoint"/>
                        <mxPoint x="306" y="80" as="targetPoint"/>
                        <Array as="points">
                            <mxPoint x="346" y="40"/>
                            <mxPoint x="346" y="80"/>
                        </Array>
                        <mxPoint as="offset"/>
                    </mxGeometry>
                </mxCell>
                <mxCell id="26" value="[ PLaylist already &#10;exist]" style="text;fontColor=#000000;fontSize=15;" parent="1" vertex="1">
                    <mxGeometry x="-20" y="930" width="100" height="20" as="geometry">
                        <mxPoint x="20" y="41" as="offset"/>
                    </mxGeometry>
                </mxCell>
                <mxCell id="27" value="[ Else ] " style="line;strokeWidth=2;dashed=1;labelPosition=center;verticalLabelPosition=bottom;align=left;verticalAlign=top;spacingLeft=20;spacingTop=15;fontColor=#000000;strokeColor=#4D4D4D;labelBackgroundColor=none;fontSize=15;" parent="1" vertex="1">
                    <mxGeometry x="-20" y="1022.23" width="540" height="32" as="geometry"/>
                </mxCell>
                <mxCell id="36" value="&lt;b&gt;Display&amp;nbsp;error&lt;/b&gt;:&lt;br&gt;&quot;&lt;i&gt;Playlist already exist&lt;/i&gt;&quot;" style="html=1;verticalAlign=bottom;endArrow=block;fontColor=#000000;labelBackgroundColor=#FFFFFF;strokeWidth=2;fillColor=#f8cecc;strokeColor=#b85450;" parent="1" edge="1">
                    <mxGeometry x="0.1667" y="33" width="80" relative="1" as="geometry">
                        <mxPoint x="327" y="960" as="sourcePoint"/>
                        <mxPoint x="327" y="1000" as="targetPoint"/>
                        <Array as="points">
                            <mxPoint x="367" y="960"/>
                            <mxPoint x="367" y="1000"/>
                        </Array>
                        <mxPoint as="offset"/>
                    </mxGeometry>
                </mxCell>
                <mxCell id="39" value="&lt;b&gt;Save&amp;nbsp;&lt;br&gt;&lt;/b&gt;new playlist to&lt;br&gt;local data&lt;b&gt;&amp;nbsp;&lt;/b&gt;" style="html=1;verticalAlign=bottom;endArrow=block;fontColor=#000000;labelBackgroundColor=#FFFFFF;strokeWidth=2;fillColor=#f8cecc;strokeColor=#b85450;" parent="1" edge="1">
                    <mxGeometry x="0.1667" y="33" width="80" relative="1" as="geometry">
                        <mxPoint x="327" y="1080" as="sourcePoint"/>
                        <mxPoint x="327" y="1120" as="targetPoint"/>
                        <Array as="points">
                            <mxPoint x="367" y="1080"/>
                            <mxPoint x="367" y="1120"/>
                        </Array>
                        <mxPoint as="offset"/>
                    </mxGeometry>
                </mxCell>
                <mxCell id="41" value="&lt;b&gt;Display &lt;/b&gt;message:&lt;br&gt;&quot;&lt;i&gt;Playlist Created&lt;/i&gt;&quot;" style="html=1;verticalAlign=bottom;endArrow=block;fontColor=#000000;labelBackgroundColor=#FFFFFF;strokeWidth=2;fillColor=#f8cecc;strokeColor=#b85450;" parent="1" edge="1">
                    <mxGeometry x="0.1667" y="33" width="80" relative="1" as="geometry">
                        <mxPoint x="326" y="1160" as="sourcePoint"/>
                        <mxPoint x="326" y="1200" as="targetPoint"/>
                        <Array as="points">
                            <mxPoint x="366" y="1160"/>
                            <mxPoint x="366" y="1200"/>
                        </Array>
                        <mxPoint as="offset"/>
                    </mxGeometry>
                </mxCell>
                <mxCell id="52" value="&lt;b&gt;Submit &lt;/b&gt;new playlist" style="html=1;verticalAlign=bottom;endArrow=block;fontColor=#000000;labelBackgroundColor=none;strokeWidth=2;fillColor=#d5e8d4;gradientColor=#97d077;strokeColor=#82b366;" parent="1" edge="1">
                    <mxGeometry width="80" relative="1" as="geometry">
                        <mxPoint x="166" y="521" as="sourcePoint"/>
                        <mxPoint x="320" y="521" as="targetPoint"/>
                    </mxGeometry>
                </mxCell>
                <mxCell id="53" value="" style="html=1;points=[];perimeter=orthogonalPerimeter;strokeColor=#82b366;strokeWidth=2;fillColor=#d5e8d4;" parent="1" vertex="1">
                    <mxGeometry x="156" y="520" width="10" height="40" as="geometry"/>
                </mxCell>
            </root>
        </mxGraphModel>
    </diagram>
</mxfile>